<?xml version="1.0" standalone="no"?><!DOCTYPE svg PUBLIC "-//W3C//DTD SVG 1.1//EN" "http://www.w3.org/Graphics/SVG/1.1/DTD/svg11.dtd"><svg t="1611337636444" class="icon" viewBox="0 0 1024 1024" version="1.1" xmlns="http://www.w3.org/2000/svg" p-id="4021" xmlns:xlink="http://www.w3.org/1999/xlink" width="32" height="32"><defs><style type="text/css"></style></defs><path d="M521.898667 595.382857h87.283809a31.890286 31.890286 0 0 0 0-63.829333H533.942857l96.060953-101.034667 2.486857-6.436571v-20.187429l-8.777143-9.167238h-44.080762l-6.144 2.535619c-6.095238 6.095238-15.262476 15.11619-24.380952 24.429714-11.702857 11.897905-19.504762 19.992381-22.820572 23.844572-1.365333 0.975238 3.413333-4.047238-23.649524 24.966095l-11.556571 12.385524-52.175238-53.49181-13.507048-14.628571a2039.466667 2039.466667 0 0 1-16.286476-17.310476l-6.339048-2.730667h-44.373333l-8.777143 9.216v8.338286l0.097524 2.438095 0.048762 9.264762c0 6.339048 8.289524 15.213714 55.929905 64.755809l1.80419 1.852953c12.04419 12.483048 25.014857 25.795048 37.936762 39.009524 0.633905 0.682667 1.26781 1.219048 1.852952 1.950476H373.077333a31.939048 31.939048 0 0 0-0.048762 63.878095h86.991239v51.248762H373.028571a31.792762 31.792762 0 1 0 0 63.585524h87.137524v69.095619a30.96381 30.96381 0 0 0 61.830095 0l-0.243809-68.949334h87.478857a31.890286 31.890286 0 0 0 0-63.780571h-87.235048l-0.146285-51.2z" fill="#FFBD06" p-id="4022"></path><path d="M736.597333 231.716571l6.339048-12.483047 4.778667-10.093714c74.313143-129.365333-15.213714-243.516952-162.230858-198.168381-13.750857 4.87619-28.281905 9.508571-43.641904 13.848381-10.142476 2.876952-20.48 5.36381-30.915048 7.606857a158.96381 158.96381 0 0 1-30.963809 3.900952L472.015238 35.888762a230.790095 230.790095 0 0 1-17.651809-2.584381C430.128762 28.379429 405.504 21.504 381.513143 12.678095c-151.015619-45.738667-238.933333 65.828571-163.986286 201.532953l4.973714 10.483809 12.970667 24.81981C109.519238 348.988952 25.258667 536.771048 25.258667 712.070095c0 44.909714 5.558857 89.429333 16.579047 132.778667 1.755429 9.557333 5.461333 21.796571 11.50781 38.912l3.900952 8.338286 11.50781 19.699809c37.595429 54.272 97.231238 82.407619 165.888 82.407619h528.579047c100.742095 0 178.468571-60.65981 192.365715-153.843809 10.581333-41.935238 15.847619-85.138286 15.750095-128.487619 0-186.61181-95.378286-383.658667-234.73981-480.158477zM150.820571 859.282286l-6.92419-12.092953-4.388571-13.165714-1.609143-6.095238-1.072762-5.36381a441.148952 441.148952 0 0 1-14.043429-110.494476c0-160.670476 86.211048-336.359619 202.361905-406.332952l41.837714-25.258667-25.35619-41.788952a912.969143 912.969143 0 0 1-23.405715-41.252572l-12.678095-24.966095a89.380571 89.380571 0 0 1-0.78019-1.609143c-34.864762-63.536762-17.993143-84.992 45.83619-65.731047 26.038857 9.654857 55.53981 17.944381 85.479619 23.893333 17.456762 3.218286 32.182857 4.87619 45.251048 4.87619a256 256 0 0 0 50.273524-6.192761c11.800381-2.438095 24.380952-5.510095 36.717714-9.020953 17.603048-4.973714 34.230857-10.337524 47.932952-15.213714 59.830857-18.383238 77.531429 4.096 44.860953 61.098667l-9.264762 18.724571-5.217524 10.044952c-3.949714 7.460571-7.801905 14.57981-11.702857 21.357715l-31.695238 54.613333 45.933714 23.405714c127.463619 64.999619 224.646095 248.441905 224.646095 419.352381 0.097524 36.08381-4.388571 71.92381-13.360762 106.642286l-1.121523 5.753905c-5.851429 44.27581-41.20381 72.265143-96.060953 72.265143H234.593524c-38.083048 0-67.388952-13.848381-83.821714-37.449143z" fill="#FFBB20" p-id="4023"></path></svg>